<svg width="120" height="120" viewBox="0 0 120 120" fill="none" xmlns="http://www.w3.org/2000/svg">
  <rect width="120" height="120" rx="24" fill="#0D1321"/>
  <path d="M30 36H72C82.4934 36 91 44.5066 91 55C91 65.4934 82.4934 74 72 74H40V84H72C88.5685 84 102 70.5685 102 54C102 37.4315 88.5685 24 72 24H30V36Z" fill="#2F5DFF"/>
  <path d="M18 52H66C75.3888 52 83 59.6112 83 69C83 78.3888 75.3888 86 66 86H30V96H66C80.3594 96 92 84.3594 92 70C92 55.6406 80.3594 44 66 44H18V52Z" fill="#FF8A3D"/>
  <circle cx="34" cy="64" r="8" fill="#1FB6A6"/>
</svg>
